<svg xmlns="http://www.w3.org/2000/svg" viewBox="0 0 192.53 9.81"><defs><style>.cls-1{fill:#231f20;}</style></defs><g id="Layer_2" data-name="Layer 2"><g id="Layer_1-2" data-name="Layer 1"><path class="cls-1" d="M0,.19H3.16A3.23,3.23,0,0,1,6.48,3.31,3.2,3.2,0,0,1,3.16,6.36H1.48V9.64H0ZM5,3.3A1.76,1.76,0,0,0,3.16,1.66H1.48V4.89H3.16A1.74,1.74,0,0,0,5,3.3Z"/><path class="cls-1" d="M14.71.19V9.64H13.22v-4H9.13v4H7.66V.19H9.13v4h4.09v-4Z"/><path class="cls-1" d="M22.47,8.2H18l-.64,1.44H15.75L20.19,0h.09l4.44,9.64h-1.6ZM21.9,6.93,20.24,3.24,18.57,6.93Z"/><path class="cls-1" d="M30.52,1.66H28v8H26.5v-8H24V.19h6.56Z"/><path class="cls-1" d="M31.15,8l1.17-.84A2.37,2.37,0,0,0,34.44,8.3c1.06,0,1.86-.51,1.86-1.23,0-.87-1.24-1.4-2.34-1.87s-2.34-1.07-2.34-2.55a2.78,2.78,0,0,1,3-2.63A2.74,2.74,0,0,1,37.4,1.71l-1.1.76a1.75,1.75,0,0,0-1.63-1,1.41,1.41,0,0,0-1.56,1.2c0,.74.87,1,2,1.5,1.5.65,2.66,1.37,2.66,2.86,0,1.68-1.46,2.76-3.37,2.76A3.49,3.49,0,0,1,31.15,8Z"/><path class="cls-1" d="M44.54,8.2H40.07l-.65,1.44h-1.6L42.26,0h.09l4.44,9.64H45.18ZM44,6.93,42.3,3.24,40.64,6.93Z"/><path class="cls-1" d="M55.43.17V9.8h-.07l-6-6.31V9.65H47.84V0h.07l6,6.3V.17Z"/><path class="cls-1" d="M57.25.19H60.4a3.24,3.24,0,0,1,3.33,3.12A3.21,3.21,0,0,1,60.4,6.36H58.73V9.64H57.25Zm5,3.11A1.75,1.75,0,0,0,60.4,1.66H58.73V4.89H60.4A1.73,1.73,0,0,0,62.24,3.3Z"/><path class="cls-1" d="M72,.19V9.64H70.47v-4H66.38v4H64.9V.19h1.48v4h4.09v-4Z"/><path class="cls-1" d="M73.32,4.93a4.89,4.89,0,1,1,4.87,4.86A4.9,4.9,0,0,1,73.32,4.93Zm8.27,0a3.39,3.39,0,1,0-3.4,3.37A3.41,3.41,0,0,0,81.59,4.92Z"/><path class="cls-1" d="M92,.17V9.8H92l-6-6.31V9.65H84.45V0h.07l6,6.3V.17Z"/><path class="cls-1" d="M105,.17V9.8h-.07l-6-6.31V9.65H97.37V0h.08l6,6.3V.17Z"/><path class="cls-1" d="M112.73,8.2h-4.47l-.65,1.44H106L110.45,0h.09L115,9.64h-1.61Zm-.58-1.27L110.5,3.24l-1.67,3.69Z"/><path class="cls-1" d="M121,9.64l-3.5-4.57V9.64H116V.19h1.47V4.72L120.75.19h1.72l-3.35,4.64,3.69,4.81Z"/><path class="cls-1" d="M129.76,8.2h-4.47l-.65,1.44H123L127.48,0h.08L132,9.64H130.4Zm-.58-1.27-1.66-3.69-1.66,3.69Z"/><path class="cls-1" d="M138.25,9.64,135.7,6h-1.16V9.64h-1.48V.19H136a3.13,3.13,0,0,1,3.2,3,2.77,2.77,0,0,1-1.87,2.63l2.75,3.78ZM136,4.75a1.6,1.6,0,0,0,1.63-1.56A1.58,1.58,0,0,0,136,1.66h-1.49V4.75Z"/><path class="cls-1" d="M147,8.2h-4.47l-.64,1.44h-1.61L144.73,0h.09l4.44,9.64h-1.6Zm-.57-1.27-1.66-3.69-1.66,3.69Z"/><path class="cls-1" d="M157.9.17V9.8h-.07l-6-6.31V9.65h-1.48V0h.08l6,6.3V.17Z"/><path class="cls-1" d="M159.63,6.06V.19h1.49V6.05a2.09,2.09,0,1,0,4.16,0V.19h1.5V6.06a3.58,3.58,0,1,1-7.15,0Z"/><path class="cls-1" d="M173.69,9.64,171.15,6H170V9.64H168.5V.19h2.93a3.13,3.13,0,0,1,3.2,3,2.75,2.75,0,0,1-1.87,2.63l2.75,3.78Zm-2.22-4.89a1.6,1.6,0,0,0,1.63-1.56,1.57,1.57,0,0,0-1.63-1.53H170V4.75Z"/><path class="cls-1" d="M182.46,8.2H178l-.64,1.44h-1.61L180.18,0h.08l4.45,9.64H183.1Zm-.58-1.27-1.66-3.69-1.66,3.69Z"/><path class="cls-1" d="M190.72,9.64l-3.49-4.57V9.64h-1.48V.19h1.48V4.72L190.48.19h1.72l-3.35,4.64,3.68,4.81Z"/></g></g></svg>